{"title":"The Green Hornet 2011 TS READNFO XViD - IMAGiNE","uid":6109986,"size":1482726025,"categoryP":"video","categoryS":"movies","magnet":"?xt=urn:btih:18ba61f2d8ae21878b833786a51e34f527fdb617&amp;dn=The+Green+Hornet+2011+TS+READNFO+XViD+-+IMAGiNE&amp;tr=udp%3A%2F%2Ftracker.openbittorrent.com%3A80&amp;tr=udp%3A%2F%2Fopen.demonii.com%3A1337&amp;tr=udp%3A%2F%2Ftracker.coppersurfer.tk%3A6969&amp;tr=udp%3A%2F%2Fexodus.desync.com%3A6969","seeders":1,"leechers":0,"uploader":".BONE.","files":102,"time":1295312934,"description":"Another Fine Release Brought to you from - IMAGiNE\n\n\n********************************************************************************************************************\nThe Green Hornet 2011 TS XviD - IMAGiNE\n********************************************************************************************************************\n\nRipper ...........: IMAGiNE IMDB Rating.......:6.8/10\nVideo Codec.......: XVID Release Date......:14/01/11\nAudio Codec.......:MP3 Theatre Date......:14/01/11\nAudio Bitrate.....:128 Runtime.......:1h 51mn\nSubtitles.........:NIL Language..........:ENGLISH\nResolution...... 720 x 306 IMDb URL.......... http://www.imdb.com/title/tt0990407/\n\n\nDETAILS:\n\nVideo\nFormat : MPEG-4 Visual\nFormat profile : Streaming Video@L1\nFormat settings, BVOP : Yes\nFormat settings, QPel : No\nFormat settings, GMC : No warppoints\nFormat settings, Matrix : Default\nMuxing mode : Packed bitstream\nCodec ID : XVID\nCodec ID/Hint : XviD\nDuration : 1h 51mn\nBit rate : 1 619 Kbps\nWidth : 720 pixels\nHeight : 306 pixels\nDisplay aspect ratio : 2.35\nFrame rate : 25.000 fps\nResolution : 24 bits\nColorimetry : 4:2:0\nScan type : Progressive\nBits/(Pixel*Frame) : 0.294\nStream size : 1.26 GiB (92%)\nWriting library : XviD 1.1.2 (UTC 2006-11-01)\n\nAudio\nFormat : MPEG Audio\nFormat version : Version 1\nFormat profile : Layer 3\nCodec ID : 55\nCodec ID/Hint : MP3\nDuration : 1h 51mn\nBit rate mode : Constant\nBit rate : 128 Kbps\nChannel(s) : 2 channels\nSampling rate : 44.1 KHz\nResolution : 16 bits\nStream size : 102 MiB (7%)\nAlignment : Split accross interleaves\nInterleave, duration : 40 ms (1.00 video frame)\nInterleave, preload duration : 500 ms\n\n\n\n\n\nSOURCES:\n\nVIDEO: SERENiTY... Thanks\nAUDIO: A good Friend... Thanks\n\nNOTES:\n\nIMAGiNE bringing you another release..........The Green Hornet 2011\n\nWhat we did was use SERENiTY source and did our own encode from that. We just made a small script containing resize,white balance,rgb eq,sharpness,chroma,brightness,contrast ect.\nThen we cleaned up the audio removing noise and hiss ect.Then synced it to our encode.\n\nEnjoy\n\n\n\n","torrent":{"xt":"urn:btih:18ba61f2d8ae21878b833786a51e34f527fdb617","amp;dn":"The+Green+Hornet+2011+TS+READNFO+XViD+-+IMAGiNE","amp;tr":["udp%3A%2F%2Ftracker.openbittorrent.com%3A80","udp%3A%2F%2Fopen.demonii.com%3A1337","udp%3A%2F%2Ftracker.coppersurfer.tk%3A6969","udp%3A%2F%2Fexodus.desync.com%3A6969"],"infoHash":"18ba61f2d8ae21878b833786a51e34f527fdb617","infoHashBuffer":{"type":"Buffer","data":[24,186,97,242,216,174,33,135,139,131,55,134,165,30,52,245,39,253,182,23]},"announce":[],"urlList":[]}}